<svg width="90" height="90" viewBox="0 0 90 90" fill="none" xmlns="http://www.w3.org/2000/svg">
<rect width="90" height="90" rx="10" fill="#70A0AF"/>
<path d="M44.9992 51.43C53.8752 51.43 61.0706 44.2345 61.0706 35.3585C61.0706 26.4825 53.8752 19.2871 44.9992 19.2871C36.1232 19.2871 28.9277 26.4825 28.9277 35.3585C28.9277 44.2345 36.1232 51.43 44.9992 51.43Z" stroke="#FFFAF2" stroke-linecap="round" stroke-linejoin="round"/>
<path d="M13.5 86.7856C14.9755 79.5194 18.9175 72.9868 24.6583 68.2946C30.3991 63.6023 37.5856 61.0391 45 61.0391C52.4144 61.0391 59.6009 63.6023 65.3417 68.2946C71.0825 72.9868 75.0245 79.5194 76.5 86.7856" stroke="#FFFAF2" stroke-linecap="round" stroke-linejoin="round"/>
<path d="M80.3567 3.21484H9.64244C6.09204 3.21484 3.21387 6.09301 3.21387 9.64341V80.3577C3.21387 83.9081 6.09204 86.7863 9.64244 86.7863H80.3567C83.9071 86.7863 86.7853 83.9081 86.7853 80.3577V9.64341C86.7853 6.09301 83.9071 3.21484 80.3567 3.21484Z" stroke="#FFFAF2" stroke-linecap="round" stroke-linejoin="round"/>
</svg>
