<svg width="2595" height="243" viewBox="0 0 2595 243" fill="none" xmlns="http://www.w3.org/2000/svg">
<path d="M0.000976562 64.8291H0V0C207.82 3.71274e-05 369.757 29.867 885.933 6.55664C1402.11 -16.7537 1685.5 31.1768 2029.62 31.1768C2373.73 31.1767 2591 6.55664 2591 6.55664V64.8291H2591V223.041C2590.55 223.021 2148.12 203.092 1653.11 223.041C1157.85 243 1269.86 231.782 734.117 223.041C198.496 214.302 0.0911638 242.987 0.000976562 243V64.8291Z" fill="#70A0AF" fill-opacity="0.51"/>
<path d="M0 41C208.141 41 370.328 60.6658 887.301 45.3174C1404.27 29.969 1688.1 61.5283 2032.75 61.5283C2377.35 61.5283 2594.94 45.3222 2595 45.3174V83.6855H2595V187.858C2594.58 187.846 2151.45 174.723 1655.66 187.858C1159.64 201 1271.82 193.614 735.25 187.858C198.68 182.103 3.08925e-05 201 0 201V41Z" fill="#FFFAF2" fill-opacity="0.4"/>
</svg>
